<svg xmlns="http://www.w3.org/2000/svg" version="1.1" xmlns:xlink="http://www.w3.org/1999/xlink" width="16" height="16" x="0" y="0" viewBox="0 0 32 32" style="enable-background:new 0 0 512 512" xml:space="preserve" class=""><g><path d="M24 29H12a3 3 0 0 1-3-3V10a3 3 0 0 1 3-3h12a3 3 0 0 1 3 3v16a3 3 0 0 1-3 3zM12 9a1 1 0 0 0-1 1v16a1 1 0 0 0 1 1h12a1 1 0 0 0 1-1V10a1 1 0 0 0-1-1z" fill="#ffffff" opacity="1" data-original="#000000" class=""></path><path d="M6 19a1 1 0 0 1-1-1V6a3 3 0 0 1 3-3h10a1 1 0 0 1 0 2H8a1 1 0 0 0-1 1v12a1 1 0 0 1-1 1z" fill="#ffffff" opacity="1" data-original="#000000" class=""></path></g></svg>