<svg xmlns="http://www.w3.org/2000/svg" version="1.1" xmlns:xlink="http://www.w3.org/1999/xlink" width="16" height="16" x="0" y="0" viewBox="0 0 32 32" style="enable-background:new 0 0 512 512" xml:space="preserve" class=""><g><path d="M30.706 19.721a1 1 0 0 0-1.042-.234A13.423 13.423 0 0 1 12.513 2.335a1 1 0 0 0-1.276-1.278A15.214 15.214 0 0 0 5.51 4.68a15.422 15.422 0 0 0 21.81 21.81 15.213 15.213 0 0 0 3.623-5.728 1 1 0 0 0-.237-1.041zm-4.8 5.355A13.422 13.422 0 1 1 10.047 3.764a15.514 15.514 0 0 0 4.2 13.985 15.51 15.51 0 0 0 13.985 4.2 13.357 13.357 0 0 1-2.326 3.127z" fill="#000000" opacity="1" data-original="#000000" class=""></path></g></svg>