<svg xmlns="http://www.w3.org/2000/svg" version="1.1" xmlns:xlink="http://www.w3.org/1999/xlink" width="32" height="32" x="0" y="0" viewBox="0 0 32 32" style="enable-background:new 0 0 512 512" xml:space="preserve" class="hovered-paths"><g><path fill="#ffffff" d="M0 5.503h32v20.993H0z" opacity="1" data-original="#ffffff" class=""></path><path fill="#bd0034" d="M14.649 5.503v8.838H0v3.742h14.649v8.414h2.967v-8.414H32v-3.742H17.616V5.503z" opacity="1" data-original="#bd0034" class="hovered-path"></path><path fill="#1a237b" d="M13.659 5.503H2.5l11.159 7.057zM0 13.094h7.865L0 8.107z" opacity="1" data-original="#1a237b" class=""></path><path fill="#bd0034" d="M0 5.5v1.228l9.439 5.893h2.318S2.454 6.859.244 5.5z" opacity="1" data-original="#bd0034" class="hovered-path"></path><path fill="#1a237b" d="M13.659 26.497H2.5l11.159-7.057zM0 18.906h7.865L0 23.893z" opacity="1" data-original="#1a237b" class=""></path><path fill="#bd0034" d="M0 26.5v-1.228l9.439-5.893h2.318S2.454 25.141.244 26.5z" opacity="1" data-original="#bd0034" class="hovered-path"></path><path fill="#1a237b" d="M18.341 5.503H29.5L18.341 12.56zM32 13.094h-7.865L32 8.107z" opacity="1" data-original="#1a237b" class=""></path><path fill="#bd0034" d="M32 5.5v1.228l-9.439 5.893h-2.318s9.3-5.762 11.513-7.118z" opacity="1" data-original="#bd0034" class="hovered-path"></path><path fill="#1a237b" d="M18.341 26.497H29.5L18.341 19.44zM32 18.906h-7.865L32 23.893z" opacity="1" data-original="#1a237b" class=""></path><path fill="#bd0034" d="M32 26.5v-1.228l-9.439-5.893h-2.318s9.3 5.762 11.513 7.118z" opacity="1" data-original="#bd0034" class="hovered-path"></path></g></svg>