<svg xmlns="http://www.w3.org/2000/svg" version="1.1" xmlns:xlink="http://www.w3.org/1999/xlink" width="32" height="32" x="0" y="0" viewBox="0 0 64 64" style="enable-background:new 0 0 512 512" xml:space="preserve" class=""><g><g data-name="Layer 50"><path fill="#ffffff" d="M4 44.55h56v2.79H4zM4 38.97h56v2.79H4zM4 33.39h56v2.79H4zM4 27.82h56v2.79H4zM4 22.24h56v2.79H4zM4 16.66h56v2.79H4z" opacity="1" data-original="#ffffff" class=""></path><path fill="#bd3d44" d="M4 47.34h56v2.79H4zM4 41.76h56v2.79H4zM4 36.18h56v2.79H4zM4 30.61h56v2.79H4zM4 25.03h56v2.79H4zM4 19.45h56v2.79H4zM4 13.87h56v2.79H4z" opacity="1" data-original="#bd3d44" class=""></path><path fill="#192f5d" d="M4 13.87h23.61v16.46H4z" opacity="1" data-original="#192f5d" class=""></path><g fill="#fff"><path d="m5.64 16.48.56-.41.56.41-.21-.66.56-.4h-.69l-.22-.66-.21.66H5.3l.56.4zM6.2 18.01l-.21.66H5.3l.56.4-.22.66.56-.41.56.41-.21-.66.56-.4h-.69zM6.2 21.26l-.21.66H5.3l.56.4-.22.66.56-.41.56.41-.21-.66.56-.4h-.69zM6.2 24.51l-.21.65H5.3l.56.41-.22.66.56-.41.56.41-.21-.66.56-.41h-.69zM6.42 28.41l-.22-.65-.21.65H5.3l.56.41-.22.66.56-.41.56.41-.21-.66.56-.41zM9.29 16.48l.56-.41.55.41-.21-.66.56-.4h-.69l-.21-.66-.22.66h-.69l.56.4zM9.85 18.01l-.22.66h-.69l.56.4-.21.66.56-.41.55.41-.21-.66.56-.4h-.69zM9.85 21.26l-.22.66h-.69l.56.4-.21.66.56-.41.55.41-.21-.66.56-.4h-.69zM9.85 24.51l-.22.65h-.69l.56.41-.21.66.56-.41.55.41-.21-.66.56-.41h-.69zM10.06 28.41l-.21-.65-.22.65h-.69l.56.41-.21.66.56-.41.55.41-.21-.66.56-.41zM12.93 16.48l.56-.41.55.41-.21-.66.56-.4h-.69l-.21-.66-.22.66h-.69l.56.4zM13.49 18.01l-.22.66h-.69l.56.4-.21.66.56-.41.55.41-.21-.66.56-.4h-.69zM13.49 21.26l-.22.66h-.69l.56.4-.21.66.56-.41.55.41-.21-.66.56-.4h-.69zM13.49 24.51l-.22.65h-.69l.56.41-.21.66.56-.41.55.41-.21-.66.56-.41h-.69zM13.7 28.41l-.21-.65-.22.65h-.69l.56.41-.21.66.56-.41.55.41-.21-.66.56-.41zM16.57 16.48l.56-.41.56.41-.22-.66.56-.4h-.69l-.21-.66-.22.66h-.68l.55.4zM17.13 18.01l-.22.66h-.68l.55.4-.21.66.56-.41.56.41-.22-.66.56-.4h-.69zM17.13 21.26l-.22.66h-.68l.55.4-.21.66.56-.41.56.41-.22-.66.56-.4h-.69zM17.13 24.51l-.22.65h-.68l.55.41-.21.66.56-.41.56.41-.22-.66.56-.41h-.69zM17.34 28.41l-.21-.65-.22.65h-.68l.55.41-.21.66.56-.41.56.41-.22-.66.56-.41zM20.21 16.48l.56-.41.56.41-.22-.66.56-.4h-.69l-.21-.66-.21.66h-.69l.56.4zM20.77 18.01l-.21.66h-.69l.56.4-.22.66.56-.41.56.41-.22-.66.56-.4h-.69zM20.77 21.26l-.21.66h-.69l.56.4-.22.66.56-.41.56.41-.22-.66.56-.4h-.69zM20.77 24.51l-.21.65h-.69l.56.41-.22.66.56-.41.56.41-.22-.66.56-.41h-.69zM20.98 28.41l-.21-.65-.21.65h-.69l.56.41-.22.66.56-.41.56.41-.22-.66.56-.41zM23.86 16.48l.55-.41.56.41-.21-.66.56-.4h-.69l-.22-.66-.21.66h-.69l.56.4zM24.41 18.01l-.21.66h-.69l.56.4-.21.66.55-.41.56.41-.21-.66.56-.4h-.69zM24.41 21.26l-.21.66h-.69l.56.4-.21.66.55-.41.56.41-.21-.66.56-.4h-.69zM24.41 24.51l-.21.65h-.69l.56.41-.21.66.55-.41.56.41-.21-.66.56-.41h-.69zM24.63 28.41l-.22-.65-.21.65h-.69l.56.41-.21.66.55-.41.56.41-.21-.66.56-.41zM7.47 18.27l.55-.41.56.41-.21-.66.56-.41h-.69l-.22-.65-.21.65h-.69l.56.41zM8.02 19.8l-.21.65h-.69l.56.41-.21.65.55-.4.56.4-.21-.65.56-.41h-.69zM8.02 23.05l-.21.65h-.69l.56.41-.21.65.55-.4.56.4-.21-.65.56-.41h-.69zM8.02 26.3l-.21.65h-.69l.56.41-.21.65.55-.4.56.4-.21-.65.56-.41h-.69zM11.11 18.27l.56-.41.55.41-.21-.66.56-.41h-.69l-.21-.65-.22.65h-.69l.56.41zM11.67 19.8l-.22.65h-.69l.56.41-.21.65.56-.4.55.4-.21-.65.56-.41h-.69zM11.67 23.05l-.22.65h-.69l.56.41-.21.65.56-.4.55.4-.21-.65.56-.41h-.69zM11.67 26.3l-.22.65h-.69l.56.41-.21.65.56-.4.55.4-.21-.65.56-.41h-.69zM14.75 18.27l.56-.41.56.41-.22-.66.56-.41h-.69l-.21-.65-.21.65h-.7l.56.41zM15.31 19.8l-.21.65h-.7l.56.41-.21.65.56-.4.56.4-.22-.65.56-.41h-.69zM15.31 23.05l-.21.65h-.7l.56.41-.21.65.56-.4.56.4-.22-.65.56-.41h-.69zM15.31 26.3l-.21.65h-.7l.56.41-.21.65.56-.4.56.4-.22-.65.56-.41h-.69zM18.39 18.27l.56-.41.56.41-.22-.66.56-.41h-.69l-.21-.65-.21.65h-.69l.56.41zM18.95 19.8l-.21.65h-.69l.56.41-.22.65.56-.4.56.4-.22-.65.56-.41h-.69zM18.95 23.05l-.21.65h-.69l.56.41-.22.65.56-.4.56.4-.22-.65.56-.41h-.69zM18.95 26.3l-.21.65h-.69l.56.41-.22.65.56-.4.56.4-.22-.65.56-.41h-.69zM22.03 18.27l.56-.41.56.41-.21-.66.55-.41h-.69l-.21-.65-.21.65h-.69l.56.41zM22.59 19.8l-.21.65h-.69l.56.41-.22.65.56-.4.56.4-.21-.65.55-.41h-.69zM22.59 23.05l-.21.65h-.69l.56.41-.22.65.56-.4.56.4-.21-.65.55-.41h-.69zM22.59 26.3l-.21.65h-.69l.56.41-.22.65.56-.4.56.4-.21-.65.55-.41h-.69z" fill="#ffffff" opacity="1" data-original="#ffffff" class=""></path></g></g></g></svg>